<svg width="70" height="96" viewBox="0 0 70 96" fill="none" xmlns="http://www.w3.org/2000/svg">
<g clip-path="url(#clip0)">
<path d="M69.4225 4.46739V90.8626C69.4225 93.2467 67.4963 95.1729 65.1122 95.1729H4.31029C1.92621 95.1571 0 93.2309 0 90.8626V4.46739C0 2.08331 1.92621 0.157104 4.31029 0.157104H65.128C67.4963 0.157104 69.4225 2.08331 69.4225 4.46739Z" fill="url(#paint0_linear)"/>
<path d="M65 8.10376V87.2104C65 89.3934 63.3075 91.1571 61.2126 91.1571H7.78735C5.69252 91.1426 4 89.3789 4 87.2104V8.10376C4 5.92081 5.69252 4.1571 7.78735 4.1571H61.2265C63.3075 4.1571 65 5.92081 65 8.10376Z" fill="url(#paint1_linear)"/>
<path d="M26.8722 18.4087V22.3401C26.8722 22.6243 26.6511 22.8453 26.367 22.8453H21.5514C21.2672 22.8453 21.0462 23.0664 21.0462 23.3506V28.1661C21.0462 28.4503 20.8252 28.6713 20.541 28.6713H16.6096C16.3254 28.6713 16.1044 28.4503 16.1044 28.1661V23.3506C16.1044 23.0664 15.8833 22.8453 15.5991 22.8453H10.7994C10.5152 22.8453 10.2942 22.6243 10.2942 22.3401V18.4087C10.2942 18.1245 10.5152 17.9035 10.7994 17.9035H15.6149C15.8991 17.9035 16.1202 17.6825 16.1202 17.3983V12.5827C16.1202 12.2986 16.3412 12.0775 16.6254 12.0775H20.5567C20.8409 12.0775 21.062 12.2986 21.062 12.5827V17.3983C21.062 17.6825 21.283 17.9035 21.5672 17.9035H26.367C26.6511 17.9035 26.8722 18.1245 26.8722 18.4087Z" fill="url(#paint2_linear)"/>
<path opacity="0.5" d="M58.5757 39.8338H10.8468C10.531 39.8338 10.2784 39.5812 10.2784 39.2654V37.4497C10.2784 37.134 10.531 36.8813 10.8468 36.8813H58.5757C58.8915 36.8813 59.1441 37.134 59.1441 37.4497V39.2654C59.1283 39.5812 58.8915 39.8338 58.5757 39.8338Z" fill="url(#paint3_linear)"/>
<path d="M58.5757 17.2088H34.8928C34.577 17.2088 34.3244 16.9562 34.3244 16.6404V14.8405C34.3244 14.5247 34.577 14.2721 34.8928 14.2721H58.5757C58.8915 14.2721 59.1441 14.5247 59.1441 14.8405V16.6562C59.1283 16.9562 58.8915 17.2088 58.5757 17.2088Z" fill="url(#paint4_linear)"/>
<path opacity="0.5" d="M51.5656 24.882H34.8928C34.577 24.882 34.3244 24.6294 34.3244 24.3136V22.498C34.3244 22.1822 34.577 21.9296 34.8928 21.9296H51.5656C51.8813 21.9296 52.1339 22.1822 52.1339 22.498V24.3136C52.1182 24.6294 51.8813 24.882 51.5656 24.882Z" fill="url(#paint5_linear)"/>
<path opacity="0.5" d="M58.5757 48.4544H10.8468C10.531 48.4544 10.2784 48.2018 10.2784 47.886V46.0703C10.2784 45.7546 10.531 45.502 10.8468 45.502H58.5757C58.8915 45.502 59.1441 45.7546 59.1441 46.0703V47.886C59.1283 48.2018 58.8915 48.4544 58.5757 48.4544Z" fill="url(#paint6_linear)"/>
<path opacity="0.5" d="M58.5757 57.075H10.8468C10.531 57.075 10.2784 56.8224 10.2784 56.5066V54.6909C10.2784 54.3752 10.531 54.1226 10.8468 54.1226H58.5757C58.8915 54.1226 59.1441 54.3752 59.1441 54.6909V56.5224C59.1283 56.8224 58.8915 57.075 58.5757 57.075Z" fill="url(#paint7_linear)"/>
<path opacity="0.5" d="M58.5757 65.7114H10.8468C10.531 65.7114 10.2784 65.4588 10.2784 65.143V63.3273C10.2784 63.0115 10.531 62.7589 10.8468 62.7589H58.5757C58.8915 62.7589 59.1441 63.0115 59.1441 63.3273V65.143C59.1283 65.4588 58.8915 65.7114 58.5757 65.7114Z" fill="url(#paint8_linear)"/>
<path opacity="0.5" d="M58.5757 74.332H10.8468C10.531 74.332 10.2784 74.0794 10.2784 73.7636V71.9479C10.2784 71.6321 10.531 71.3795 10.8468 71.3795H58.5757C58.8915 71.3795 59.1441 71.6321 59.1441 71.9479V73.7636C59.1283 74.0794 58.8915 74.332 58.5757 74.332Z" fill="url(#paint9_linear)"/>
<path opacity="0.5" d="M58.5757 82.9526H10.8468C10.531 82.9526 10.2784 82.7 10.2784 82.3842V80.5685C10.2784 80.2527 10.531 80.0001 10.8468 80.0001H58.5757C58.8915 80.0001 59.1441 80.2527 59.1441 80.5685V82.3842C59.1283 82.7 58.8915 82.9526 58.5757 82.9526Z" fill="url(#paint10_linear)"/>
<path opacity="0.1" d="M69.4225 4.46739V90.8626C69.4225 93.2467 67.4963 95.1729 65.1122 95.1729H4.31029C1.92621 95.1571 0 93.2309 0 90.8626V89.3627C37.0874 74.0477 54.3601 15.3142 58.2599 0.157104H65.1122C67.4963 0.157104 69.4225 2.08331 69.4225 4.46739Z" fill="#1A6FB5" fill-opacity="0.4"/>
</g>
<defs>
<linearGradient id="paint0_linear" x1="95" y1="126.157" x2="-6" y2="-5.3429" gradientUnits="userSpaceOnUse">
<stop offset="0.3061" stop-color="#5BA7FC"/>
<stop offset="1" stop-color="#69B8FC"/>
</linearGradient>
<linearGradient id="paint1_linear" x1="8.6241" y1="7.20274" x2="57.9385" y2="78.1884" gradientUnits="userSpaceOnUse">
<stop offset="0.3061" stop-color="white"/>
<stop offset="1" stop-color="white"/>
</linearGradient>
<linearGradient id="paint2_linear" x1="10" y1="9.65713" x2="25" y2="34.1571" gradientUnits="userSpaceOnUse">
<stop stop-color="#B0F4FF"/>
<stop offset="0.368525" stop-color="#80E4FD"/>
<stop offset="1" stop-color="#6CDDFC"/>
</linearGradient>
<linearGradient id="paint3_linear" x1="10.2906" y1="38.3643" x2="59.1355" y2="38.3643" gradientUnits="userSpaceOnUse">
<stop stop-color="#6CBCFC"/>
<stop offset="1" stop-color="#458DFC"/>
</linearGradient>
<linearGradient id="paint4_linear" x1="34.3248" y1="15.7415" x2="59.1355" y2="15.7415" gradientUnits="userSpaceOnUse">
<stop stop-color="#6CBCFC"/>
<stop offset="1" stop-color="#458DFC"/>
</linearGradient>
<linearGradient id="paint5_linear" x1="34.3248" y1="23.4187" x2="52.1256" y2="23.4187" gradientUnits="userSpaceOnUse">
<stop stop-color="#6CBCFC"/>
<stop offset="1" stop-color="#458DFC"/>
</linearGradient>
<linearGradient id="paint6_linear" x1="10.2906" y1="46.9888" x2="59.1355" y2="46.9888" gradientUnits="userSpaceOnUse">
<stop stop-color="#6CBCFC"/>
<stop offset="1" stop-color="#458DFC"/>
</linearGradient>
<linearGradient id="paint7_linear" x1="10.2906" y1="55.6133" x2="59.1355" y2="55.6133" gradientUnits="userSpaceOnUse">
<stop stop-color="#6CBCFC"/>
<stop offset="1" stop-color="#458DFC"/>
</linearGradient>
<linearGradient id="paint8_linear" x1="10.2906" y1="64.2378" x2="59.1355" y2="64.2378" gradientUnits="userSpaceOnUse">
<stop stop-color="#6CBCFC"/>
<stop offset="1" stop-color="#458DFC"/>
</linearGradient>
<linearGradient id="paint9_linear" x1="10.2906" y1="72.8623" x2="59.1355" y2="72.8623" gradientUnits="userSpaceOnUse">
<stop stop-color="#6CBCFC"/>
<stop offset="1" stop-color="#458DFC"/>
</linearGradient>
<linearGradient id="paint10_linear" x1="10.2906" y1="81.4868" x2="59.1355" y2="81.4868" gradientUnits="userSpaceOnUse">
<stop stop-color="#6CBCFC"/>
<stop offset="1" stop-color="#458DFC"/>
</linearGradient>
<clipPath id="clip0">
<rect width="69.4225" height="95" fill="white" transform="translate(0 0.157104)"/>
</clipPath>
</defs>
</svg>
