<svg width="160" height="42" viewBox="0 0 160 42" fill="none" xmlns="http://www.w3.org/2000/svg">
<path d="M58.856 15.956H53.288V13.412H67.568V15.956H61.976V30.5H58.856V15.956ZM74.1209 18.092C74.5849 18.092 74.9849 18.156 75.3209 18.284L75.2969 21.02C74.7849 20.812 74.2569 20.708 73.7129 20.708C72.6889 20.708 71.9049 21.004 71.3609 21.596C70.8329 22.188 70.5689 22.972 70.5689 23.948V30.5H67.5929V21.812C67.5929 20.532 67.5289 19.388 67.4009 18.38H70.2089L70.4489 20.516C70.7529 19.732 71.2329 19.132 71.8889 18.716C72.5449 18.3 73.2889 18.092 74.1209 18.092ZM88.349 18.38V30.5H85.397V28.556C85.029 29.228 84.501 29.756 83.813 30.14C83.125 30.508 82.341 30.692 81.461 30.692C80.405 30.692 79.469 30.436 78.653 29.924C77.837 29.412 77.205 28.684 76.757 27.74C76.309 26.796 76.085 25.7 76.085 24.452C76.085 23.204 76.309 22.1 76.757 21.14C77.221 20.164 77.861 19.412 78.677 18.884C79.493 18.34 80.421 18.068 81.461 18.068C82.341 18.068 83.125 18.26 83.813 18.644C84.501 19.012 85.029 19.532 85.397 20.204V18.38H88.349ZM82.277 28.34C83.269 28.34 84.037 27.996 84.581 27.308C85.125 26.62 85.397 25.652 85.397 24.404C85.397 23.124 85.125 22.14 84.581 21.452C84.037 20.764 83.261 20.42 82.253 20.42C81.261 20.42 80.485 20.78 79.925 21.5C79.381 22.204 79.109 23.188 79.109 24.452C79.109 25.7 79.381 26.66 79.925 27.332C80.485 28.004 81.269 28.34 82.277 28.34ZM97.3524 15.212C96.0564 15.212 95.4084 15.924 95.4084 17.348V18.38H98.1204V20.636H95.4084V30.5H92.4084V20.636H90.1044V18.38H92.4084V17.204C92.4084 15.764 92.7684 14.66 93.4884 13.892C94.2244 13.108 95.2724 12.716 96.6324 12.716C97.3844 12.716 98.0164 12.812 98.5284 13.004V15.38C98.0804 15.268 97.6884 15.212 97.3524 15.212ZM111.904 18.38V30.5H108.952V28.556C108.584 29.228 108.056 29.756 107.368 30.14C106.68 30.508 105.896 30.692 105.016 30.692C103.96 30.692 103.024 30.436 102.208 29.924C101.392 29.412 100.76 28.684 100.312 27.74C99.8637 26.796 99.6397 25.7 99.6397 24.452C99.6397 23.204 99.8637 22.1 100.312 21.14C100.776 20.164 101.416 19.412 102.232 18.884C103.048 18.34 103.976 18.068 105.016 18.068C105.896 18.068 106.68 18.26 107.368 18.644C108.056 19.012 108.584 19.532 108.952 20.204V18.38H111.904ZM105.832 28.34C106.824 28.34 107.592 27.996 108.136 27.308C108.68 26.62 108.952 25.652 108.952 24.404C108.952 23.124 108.68 22.14 108.136 21.452C107.592 20.764 106.816 20.42 105.808 20.42C104.816 20.42 104.04 20.78 103.48 21.5C102.936 22.204 102.664 23.188 102.664 24.452C102.664 25.7 102.936 26.66 103.48 27.332C104.04 28.004 104.824 28.34 105.832 28.34ZM115.171 12.836H118.147V30.5H115.171V12.836ZM133.141 18.38V30.116C133.141 32.004 132.621 33.436 131.581 34.412C130.541 35.388 129.013 35.876 126.997 35.876C125.125 35.876 123.477 35.484 122.053 34.7L122.533 32.42C124.005 33.188 125.469 33.572 126.925 33.572C129.085 33.572 130.165 32.5 130.165 30.356V27.956C129.797 28.612 129.261 29.148 128.557 29.564C127.853 29.964 127.061 30.164 126.181 30.164C125.125 30.164 124.181 29.916 123.349 29.42C122.533 28.908 121.893 28.196 121.429 27.284C120.981 26.356 120.757 25.3 120.757 24.116C120.757 22.932 120.981 21.884 121.429 20.972C121.893 20.044 122.533 19.332 123.349 18.836C124.181 18.324 125.125 18.068 126.181 18.068C127.077 18.068 127.869 18.26 128.557 18.644C129.261 19.012 129.797 19.532 130.165 20.204V18.38H133.141ZM126.973 27.812C127.965 27.812 128.741 27.484 129.301 26.828C129.877 26.172 130.165 25.268 130.165 24.116C130.165 22.964 129.885 22.06 129.325 21.404C128.765 20.748 127.981 20.42 126.973 20.42C125.981 20.42 125.197 20.748 124.621 21.404C124.061 22.06 123.781 22.964 123.781 24.116C123.781 25.268 124.061 26.172 124.621 26.828C125.197 27.484 125.981 27.812 126.973 27.812ZM147.974 18.38V30.5H145.022V28.556C144.654 29.228 144.126 29.756 143.438 30.14C142.75 30.508 141.966 30.692 141.086 30.692C140.03 30.692 139.094 30.436 138.278 29.924C137.462 29.412 136.83 28.684 136.382 27.74C135.934 26.796 135.71 25.7 135.71 24.452C135.71 23.204 135.934 22.1 136.382 21.14C136.846 20.164 137.486 19.412 138.302 18.884C139.118 18.34 140.046 18.068 141.086 18.068C141.966 18.068 142.75 18.26 143.438 18.644C144.126 19.012 144.654 19.532 145.022 20.204V18.38H147.974ZM141.902 28.34C142.894 28.34 143.662 27.996 144.206 27.308C144.75 26.62 145.022 25.652 145.022 24.404C145.022 23.124 144.75 22.14 144.206 21.452C143.662 20.764 142.886 20.42 141.878 20.42C140.886 20.42 140.11 20.78 139.55 21.5C139.006 22.204 138.734 23.188 138.734 24.452C138.734 25.7 139.006 26.66 139.55 27.332C140.11 28.004 140.894 28.34 141.902 28.34ZM157.769 18.092C158.233 18.092 158.633 18.156 158.969 18.284L158.945 21.02C158.433 20.812 157.905 20.708 157.361 20.708C156.337 20.708 155.553 21.004 155.009 21.596C154.481 22.188 154.217 22.972 154.217 23.948V30.5H151.241V21.812C151.241 20.532 151.177 19.388 151.049 18.38H153.857L154.097 20.516C154.401 19.732 154.881 19.132 155.537 18.716C156.193 18.3 156.937 18.092 157.769 18.092Z" fill="white"/>
<circle cx="20.5" cy="21" r="20.5" fill="white"/>
<path d="M19.344 15.744H13.312V12.988H28.782V15.744H22.724V31.5H19.344V15.744Z" fill="#5B9BF3"/>
</svg>
